<?xml version="1.0" standalone="no"?>
<!DOCTYPE svg PUBLIC "-//W3C//DTD SVG 20010904//EN"
 "http://www.w3.org/TR/2001/REC-SVG-20010904/DTD/svg10.dtd">
<svg version="1.0" xmlns="http://www.w3.org/2000/svg"
 width="898.000000pt" height="1280.000000pt" viewBox="0 0 898.000000 1280.000000"
 preserveAspectRatio="xMidYMid meet">
<metadata>
Created by potrace 1.15, written by Peter Selinger 2001-2017
</metadata>
<g transform="translate(0.000000,1280.000000) scale(0.100000,-0.100000)"
fill="#000000" stroke="none">
<path d="M3660 12791 c-129 -39 -231 -142 -450 -451 -230 -323 -310 -454 -380
-623 -41 -100 -108 -200 -204 -307 -42 -47 -95 -112 -117 -145 -35 -51 -40
-66 -36 -100 8 -74 34 -114 92 -140 29 -13 103 -52 164 -89 61 -36 142 -76
179 -90 37 -13 119 -49 182 -80 63 -30 171 -71 239 -91 123 -36 202 -76 249
-127 l22 -25 -107 13 c-190 23 -236 39 -418 144 -128 74 -177 96 -250 115 -30
8 -127 51 -215 95 -88 44 -184 85 -213 91 -28 6 -98 24 -153 40 -136 39 -166
38 -234 -7 -106 -68 -311 -290 -345 -371 -8 -19 -50 -76 -93 -126 -108 -128
-121 -147 -203 -293 -39 -71 -92 -158 -118 -194 -67 -94 -88 -130 -100 -176
-7 -26 -32 -65 -68 -105 -31 -35 -81 -102 -111 -149 -30 -47 -96 -137 -147
-200 -102 -128 -300 -411 -334 -478 -13 -25 -26 -78 -32 -130 -15 -129 -14
-127 -83 -205 -87 -100 -124 -154 -191 -282 -32 -60 -75 -135 -96 -166 -46
-69 -89 -153 -89 -174 0 -36 147 -283 319 -535 114 -167 146 -200 243 -257 98
-57 122 -85 137 -164 22 -108 42 -136 160 -222 58 -42 95 -98 237 -357 64
-118 140 -251 167 -295 28 -44 79 -127 113 -185 34 -58 75 -123 91 -145 50
-70 134 -115 290 -155 62 -16 73 -31 73 -104 0 -70 20 -146 57 -221 44 -87
173 -288 270 -421 207 -283 256 -356 383 -579 35 -60 88 -146 118 -189 139
-201 186 -411 128 -580 -31 -91 -58 -254 -91 -542 -31 -279 -50 -405 -70 -470
-8 -27 -20 -123 -25 -214 -5 -91 -12 -185 -15 -210 -9 -66 -131 -680 -172
-860 -43 -191 -59 -336 -74 -645 -10 -219 -8 -325 7 -427 7 -44 29 -59 205
-137 l116 -51 1634 0 c1897 1 2509 9 2558 34 41 22 51 50 51 146 0 91 15 209
36 295 9 33 20 91 25 130 5 38 13 518 19 1065 10 1125 26 1580 61 1788 12 70
38 110 189 292 116 140 168 215 181 264 16 60 65 129 189 266 140 155 225 261
249 308 10 21 28 78 40 127 11 50 43 158 71 240 28 83 61 188 75 235 39 139
157 750 157 815 0 39 -9 85 -26 134 -32 90 -32 106 -5 151 43 70 92 175 120
259 55 159 99 400 99 535 0 135 -38 146 -181 50 -45 -30 -88 -54 -95 -54 -24
0 -15 46 18 96 18 26 62 73 98 103 36 30 93 91 128 136 34 46 133 158 221 251
243 259 366 414 391 490 17 50 7 141 -20 195 -30 59 -56 91 -263 327 -97 112
-220 257 -273 322 -129 162 -212 230 -279 230 -40 0 -108 -70 -319 -330 -266
-328 -445 -533 -666 -765 -47 -49 -96 -110 -108 -135 -12 -25 -87 -124 -168
-220 -80 -96 -157 -195 -171 -220 -35 -60 -145 -195 -293 -360 -135 -151 -179
-224 -159 -262 59 -112 465 -536 595 -621 22 -15 60 -32 85 -38 82 -22 137 9
399 226 206 170 300 239 387 284 55 29 100 62 148 112 67 69 95 89 143 103 18
6 22 4 22 -14 0 -28 -81 -114 -157 -164 -34 -22 -157 -128 -273 -235 -220
-203 -340 -303 -431 -359 -30 -18 -70 -54 -89 -79 -92 -121 -122 -123 -188
-13 -26 43 -71 87 -137 130 -27 19 -131 113 -230 210 -209 204 -533 469 -641
523 -102 51 -258 103 -350 117 -43 6 -153 36 -244 65 -349 112 -829 217 -1126
246 -130 13 -159 6 -170 -35 -9 -35 23 -96 97 -186 34 -41 95 -122 136 -180
102 -144 234 -304 469 -570 354 -401 420 -488 470 -619 17 -47 55 -138 84
-201 71 -157 265 -647 273 -688 4 -19 29 -84 56 -145 55 -124 68 -163 107
-299 51 -184 142 -313 266 -378 84 -44 128 -77 128 -98 0 -47 -180 -174 -323
-227 -26 -10 -66 -34 -88 -54 -35 -31 -42 -44 -50 -96 -5 -33 -12 -400 -16
-815 -6 -846 2 -1111 37 -1220 32 -100 45 -216 32 -301 -15 -103 -61 -160 -83
-102 -14 36 -28 268 -29 453 0 166 -16 363 -30 391 -20 36 -30 126 -40 344
-24 509 -88 1022 -154 1225 -15 46 -27 113 -31 175 -9 132 -19 171 -48 179
-12 4 -137 11 -277 16 -370 14 -433 36 -270 95 155 57 303 143 470 273 52 41
123 87 157 104 46 21 80 49 128 101 73 80 82 100 66 150 -11 33 -89 171 -190
336 -28 47 -56 101 -62 122 -7 20 -32 64 -58 97 -148 192 -206 269 -277 372
-246 352 -345 502 -363 543 -11 25 -54 83 -96 129 -43 45 -99 117 -126 158
-75 117 -98 146 -143 180 -31 22 -55 55 -85 114 -23 46 -93 151 -156 235 -62
83 -144 203 -181 266 -68 116 -180 271 -245 341 -84 90 -91 94 -246 139 -195
56 -272 88 -488 200 -241 125 -292 145 -408 161 -113 16 -200 44 -234 76 -31
29 -15 45 59 58 75 12 111 32 171 94 62 65 219 298 265 394 32 67 35 80 34
167 0 71 -6 115 -27 184 -30 102 -31 184 -4 189 10 2 50 -25 90 -58 100 -83
600 -562 650 -622 46 -54 74 -65 194 -74 106 -9 159 4 324 75 202 88 212 91
371 101 221 14 262 24 413 94 156 73 195 100 236 164 43 68 60 126 96 327 9
50 25 115 36 145 26 73 40 201 30 273 -9 68 -26 89 -152 183 -94 70 -209 134
-240 134 -21 0 -92 34 -211 103 -43 24 -103 52 -135 61 -213 63 -384 127 -558
211 -204 97 -270 174 -99 115 90 -32 201 -44 268 -30 46 9 62 19 91 52 47 56
406 607 502 771 42 72 90 147 106 166 31 36 192 354 227 449 19 49 19 57 6 77
-17 26 -311 303 -400 378 -32 27 -68 52 -80 57 -12 4 -97 54 -191 110 -93 57
-207 120 -253 141 -45 21 -101 51 -125 67 -71 49 -140 63 -207 43z"/>
<path d="M5067 11802 c-102 -54 -116 -71 -264 -322 -241 -407 -344 -576 -421
-688 -129 -189 -177 -311 -161 -405 8 -53 29 -69 138 -112 197 -78 725 -336
826 -404 75 -50 79 -118 21 -332 -19 -68 -39 -158 -46 -199 -15 -87 -18 -242
-7 -282 17 -63 100 -22 300 150 65 56 138 115 162 132 25 17 77 76 126 142 46
62 118 156 160 208 42 52 88 118 102 145 14 28 60 95 102 150 42 55 79 113 82
129 3 16 34 66 68 110 160 211 201 293 266 529 77 283 78 282 -133 431 -42 30
-128 97 -190 149 -150 125 -233 180 -413 270 -82 41 -188 98 -235 126 -123 74
-228 113 -320 116 -73 3 -78 2 -163 -43z"/>
<path d="M6546 10533 c-19 -26 -65 -103 -102 -173 -92 -169 -165 -289 -228
-374 -29 -39 -89 -125 -134 -191 -44 -66 -108 -157 -141 -203 -33 -45 -65 -99
-71 -120 -21 -64 -98 -199 -245 -428 -78 -122 -159 -252 -179 -290 -20 -38
-111 -172 -203 -299 -92 -126 -206 -292 -254 -367 -48 -75 -108 -164 -133
-197 -110 -151 -75 -188 415 -447 191 -101 352 -173 414 -186 27 -5 84 -28
125 -51 154 -84 203 -107 230 -107 44 0 150 87 355 294 213 214 264 274 390
461 119 176 209 294 298 390 40 44 121 143 178 220 58 77 149 194 201 260 96
119 111 141 269 415 191 331 218 424 154 535 -29 49 -61 80 -195 187 -59 45
-185 152 -281 236 -225 196 -297 249 -483 360 -172 104 -216 122 -292 122 -53
0 -55 -1 -88 -47z"/>
<path d="M4775 8579 c-27 -5 -126 -27 -220 -49 -93 -22 -249 -53 -345 -70
-201 -35 -223 -40 -345 -82 -186 -63 -381 -155 -419 -197 -16 -17 -16 -22 -2
-49 31 -60 114 -117 259 -178 48 -20 127 -61 175 -92 216 -137 277 -172 305
-172 89 0 196 113 317 335 74 136 103 170 177 205 142 67 260 257 209 335 -18
27 -30 28 -111 14z"/>
</g>
</svg>
