<?xml version="1.0" encoding="utf-8"?>
<!-- Generator: Adobe Illustrator 16.0.0, SVG Export Plug-In . SVG Version: 6.00 Build 0)  -->
<!DOCTYPE svg PUBLIC "-//W3C//DTD SVG 1.1//EN" "http://www.w3.org/Graphics/SVG/1.1/DTD/svg11.dtd">
<svg version="1.1" id="레이어_1" xmlns="http://www.w3.org/2000/svg" xmlns:xlink="http://www.w3.org/1999/xlink" x="0px"
	 y="0px" width="1280px" height="838px" viewBox="0 0 1280 838" enable-background="new 0 0 1280 838" xml:space="preserve">
<g transform="translate(0.000000,838.000000) scale(0.100000,-0.100000)">
	<path d="M10550.002,5852.998c-30-23.999-39.004-26.997-134.004-27.998c-69.004-2.002-110,2.002-127.998,11.001
		c-35,17.998-74.004,17.998-81.006,0c-6.992-18.003-80.996-10-113.994,11.001c-17.002,10.996-27.002,11.997-42.002,2.998
		c-12.002-6.001-20.996-16.001-20.996-22.002c0-8.999-3.008-8.999-12.002,0c-14.004,14.004-67.998,16.001-67.998,3.003
		c0-5-14.004-12.002-31.006-16.001s-32.998-12.998-35-18.999c-2.998-7.002-18.994-13.003-35-13.999
		c-17.002,0-40-9.004-50.996-19.004c-11.006-10-32.998-17.998-50-18.999c-17.998-1.001-40-11.997-55-27.998
		c-12.998-13.999-30-26.001-37.002-26.001c-7.998,0-19.004-7.002-25.996-15c-7.002-7.998-27.002-15-46.006-15
		c-32.998,0-55-15-73.994-51.001c-6.006-10-18.008-18.999-27.002-18.999c-9.004,0-49.004-33.999-87.998-75
		c-69.004-72.002-80-78.999-259.004-165c-102.998-50-189.004-90-190.996-90c-2.002,0-48.008-25-102.002-56.001
		c-129.004-73.999-210-140-282.002-227.998c-32.002-38.999-70.996-82.002-85.996-96.001s-36.006-42.998-47.002-65
		c-11.006-22.002-31.006-55-45-72.998c-24.004-32.002-26.006-33.003-49.004-17.002c-32.002,21.001-43.994,12.002-43.994-32.002
		c0-35-1.006-35-32.002-28.999c-17.998,3.003-42.002,13.003-52.998,20c-20,13.003-21.006,18.999-13.008,78.003
		c10,68.999,4.004,231.997-10,268.999c-5,12.998-15,46.001-20.996,73.999c-19.004,78.999-32.998,87.998-115.996,80
		c-38.008-2.998-79.004-12.002-91.006-20c-10.996-7.002-32.002-11.001-45.996-7.998c-30,5.996-72.998-15-107.002-51.001
		c-20-21.001-34.004-26.001-75-26.001c-45.996,0-52.998-2.998-90-42.998c-34.004-35-52.002-46.001-100-56.001
		c-44.004-10-69.004-23.003-102.002-53.003C7410.002,4906,7388,4880,7385.002,4871c-3.008-8.999-21.006-23.003-41.006-30
		c-70-25-133.994-100-133.994-156.001c0-17.002-7.002-27.998-22.002-33.999c-49.004-18.999-97.998-92.002-97.998-146.001
		c0-12.998-15-37.998-35-57.998c-27.002-27.002-35-43.003-35-72.002c0-20,5-46.001,10.996-57.002
		c7.998-13.999,7.998-22.998,0-30.996c-5.996-6.001-10.996-30-10.996-53.003c0-33.999,5.996-48.999,30-71.997
		c20.996-21.006,30-40,30-62.002c0-32.002,25-90,37.998-90c3.994,0,27.002-17.998,48.994-40c60-57.002,83.008-60,203.008-24.004
		l25,7.002l-25-20.996c-31.006-26.006-19.004-41.006,38.994-49.004C7473,3874.004,7468,3860,7400.998,3860
		c-72.002,0-90.996-5.996-90.996-30.996c0-26.006,30.996-39.004,95.996-39.004c54.004,0,60.996,2.998,185.996,87.002
		C7663.996,3925,7750.002,3990,7783,4020l60.996,55.996l55-21.992c31.006-12.002,82.002-25,112.998-29.004
		c64.004-7.002,88.008-25,36.006-25c-104.004-0.996-155-70-235-315.996c-67.998-211.006-84.004-299.004-97.998-544.004
		c-3.008-52.002-10-120-15-150.996c-12.002-63.008-11.006-62.002-12.002-236.006c0-67.998,0-130.996,0-140
		c0-90,5-157.998,12.002-178.994c6.992-18.008,5.996-33.008-6.006-55c-7.998-17.002-13.994-45-12.998-62.002
		c2.002-17.998-0.996-39.004-5.996-47.002c-6.006-7.998-10-52.998-11.006-100c-0.996-47.002-5-105.996-8.994-132.002
		c-7.002-45,6.992-107.998,23.994-107.998c2.998,0,7.002-35,7.002-77.002c2.998-160,9.004-205,32.002-223.994
		c12.002-9.004,22.002-28.008,22.002-41.006c0.996-12.002,7.998-50,15.996-82.998c9.004-32.998,19.004-82.998,22.998-110.996
		c4.004-28.008,14.004-62.002,22.998-76.006c9.004-13.994,21.006-40.996,25-58.994c7.002-24.004,16.006-35,31.006-37.002
		c13.994-2.002,22.002-10,22.002-22.002c0-22.998,35.996-50,65.996-50c27.998,0,35-9.004,20.996-30
		c-22.998-37.998,15-79.004,96.006-104.004c8.994-2.998,17.002-13.994,17.002-25c0-10,7.998-28.994,17.998-40.996
		c15.996-20,18.994-20.996,30.996-5.996c19.004,22.998,32.002,20,26.006-7.002c-4.004-12.002-1.006-35,5-51.006
		c15-40,33.994-20.996,48.994,50c7.002,31.006,46.006,163.008,86.006,294.004c40,130,83.994,285.996,97.998,345.996
		c12.998,60,35.996,132.002,50,160c30.996,61.006,58.994,171.006,82.998,319.004c9.004,60.996,20.996,114.004,25,120
		c5.996,5,9.004,2.998,9.004-5s8.994-25.996,18.994-39.004l17.998-23.994l11.006,33.994c25,79.004,35,200,37.002,464.004
		c2.998,232.002,6.992,300.996,25,400c23.994,139.004,78.994,365.996,116.992,489.004c25,80.996,27.002,83.994,47.002,72.998
		c14.004-7.998,72.998-12.002,176.006-12.002h155l80-52.002c43.994-28.994,90-58.994,101.992-67.998
		c13.008-9.004,47.002-57.002,78.008-107.998c76.992-130,72.998-125,85-107.002c25.996,39.004,0.996,164.004-50,257.002
		c-27.002,47.998-29.004,55-20,110c18.994,115-14.004,188.994-131.006,293.994c-200,181.006-193.994,174.004-193.994,221.006
		c0,32.002,8.994,60,35,102.998c42.998,72.998,280.996,316.001,365,372.002C9621.994,4648.999,9838.996,4760,9890.998,4770
		c27.002,5,60,15,72.998,22.002c40,20.996,115,96.997,122.002,121.997c2.998,13.003,42.998,56.001,87.998,95
		c147.002,126.001,395,421.001,557.002,663.003c42.998,65.996,75.996,123.999,72.998,130c-3.994,5-20,7.998-35.996,5.996
		c-24.004-3.999-29.004-1.997-25,12.002c10.996,41.001-30,62.998-72.998,40c-13.008-7.002-19.004-6.001-24.004,5
		C10636.994,5888.999,10585.002,5882.998,10550.002,5852.998z"/>
</g>
<g transform="translate(0.000000,838.000000) scale(0.100000,-0.100000)">
	<path d="M4858.185,6504.75c-16.943-21.802-22.729-25.405-88.94-42.031c-47.881-12.969-77.197-17.046-91.284-13.774
		c-27.471,6.704-54.722,0.166-56.602-13.584c-1.865-13.75-54.917-20.566-81.494-11.426c-13.726,4.834-20.874,3.857-29.854-4.946
		c-7.378-6.206-11.987-14.702-10.981-18.896c1.509-6.284-0.591-6.787-8.384-2.012c-12.134,7.437-50.195-0.22-48.018-9.302
		c0.84-3.496-7.769-10.732-18.979-16.382c-11.211-5.64-20.879-14.614-21.27-19.141c-0.918-5.396-11.089-12.266-22.109-15.649
		c-11.88-2.852-26.436-12.998-32.446-21.831c-6.011-8.828-20.039-18.105-31.753-21.655c-12.402-3.721-25.933-15.088-33.735-28.789
		c-6.738-11.958-16.602-23.193-21.494-24.365c-5.586-1.343-12.104-8.086-15.649-14.844c-3.55-6.763-16.353-15.005-29.629-18.193
		c-23.057-5.532-35.918-19.707-43.149-48.047c-2.524-7.988-9.399-16.289-15.684-17.798c-6.294-1.509-28.545-31.973-48.911-67.163
		c-36.147-61.88-42.656-68.608-153.315-158.716c-63.579-52.207-116.973-94.575-118.359-94.907
		c-1.401-0.337-29.355-25.518-61.885-56.23c-77.734-73.335-123.262-133.032-158.823-206.592
		c-15.815-32.622-35.85-69.204-43.989-81.499c-8.13-12.295-17.949-36.079-21.943-53.306c-4.004-17.217-12.441-43.623-19.204-58.545
		c-11.406-26.387-12.637-27.422-31.392-20.098c-25.879,9.307-32.749,1.016-25.371-29.736c5.869-24.453,5.166-24.629-17.5-25.625
		c-13.076-0.918-31.528,2.041-40.381,5.078c-16.157,5.742-17.866,9.766-22.168,52.334c-4.585,49.883-36.104,162.769-52.095,186.279
		c-5.669,8.242-18.188,29.624-27.075,48.179c-26.523,52.017-37.813,55.962-94.463,36.455c-26.055-8.467-53.188-21.631-60.239-29.233
		c-6.509-6.733-20.513-13.052-30.796-13.301c-21.963-0.84-48.491-22.72-66.211-53.574c-10.459-18.032-19.399-23.872-48.052-30.747
		c-32.134-7.71-36.523-10.981-55.674-45.132c-17.891-30.156-28.623-40.859-60.479-55.898c-29.072-14.365-44.36-27.646-62.388-54.141
		c-13.076-19.385-24.092-41.24-24.683-48.037c-0.591-6.787-10.82-19.59-23.618-27.832c-44.722-29.209-76.86-92.344-67.471-131.475
		c2.852-11.875-0.195-20.732-9.673-27.451c-31.055-21.484-53.052-80.703-43.999-118.447c2.178-9.072-4.106-29.063-14.727-46.387
		c-14.341-23.389-17.251-35.908-12.388-56.172c3.354-13.984,11.211-31.309,17.241-37.988c7.939-8.447,9.443-14.736,5.195-21.66
		c-3.179-5.205-2.651-22.813,1.206-38.877c5.703-23.76,12.402-33.242,33.032-45.283c18.198-11.152,27.671-22.91,31.362-38.291
		c5.366-22.363,32.554-58.691,41.636-56.504c2.788,0.664,21.885-8.057,40.942-19.746c51.484-29.766,68.057-28.008,145.874,17.266
		l16.294,9.082l-13.95-18.857c-17.305-23.369-6.401-31.836,35.464-27.695c46.23,4.443,45.088-6.191-1.733-17.422
		c-50.313-12.07-62.578-19.443-58.384-36.904c4.36-18.184,28.198-22.061,73.613-11.162c37.739,9.053,42.124,12.314,115.376,91.973
		c42.266,45.605,91.46,105.449,109.487,131.943l33.228,49.355l42.119-6.152c23.677-3.184,61.489-3.711,83.818-1.318
		c45.898,5.84,65.688-2.705,29.351-11.426c-72.5-18.145-96.563-74.902-111.216-260.205
		c-12.139-158.838-8.564-223.008,22.734-396.543c6.621-36.836,13.135-85.517,14.839-108.017c2.178-46.035,2.7-45.166,31.182-166.914
		c11.401-47.52,21.963-91.533,23.477-97.832c15.088-62.881,29.98-109.561,38.394-123.057c7.905-11.406,9.722-22.051,5.024-39.434
		c-2.734-13.223-2.231-33.789,1.313-45.508c4.419-12.236,5.845-27.422,3.691-33.838c-2.856-6.602,1.899-38.711,9.077-71.719
		c7.183-33.018,14.277-74.912,15.845-93.74c2.651-32.617,22.993-74.297,34.878-71.445c2.095,0.498,10.757-23.281,17.803-52.627
		c28.921-111.299,40.659-141.729,59.912-151.152c9.897-4.277,20.068-15.869,22.251-24.961c2.71-8.223,13.97-33.594,25.093-55.313
		c11.821-21.543,27.192-54.805,34.683-73.691c7.49-18.906,20.181-40.977,28.809-49.258c8.638-8.271,21.553-25.117,27.358-37.031
		c8.921-15.596,17.056-21.768,27.871-20.654c10.117,0.947,17.051-3.301,19.063-11.68c3.857-16.084,33.535-28.906,54.497-23.877
		c19.565,4.697,25.967-0.42,19.702-17.441c-9.697-30.41,23.73-52.686,84.521-56.582c6.782-0.576,14.224-6.914,16.069-14.609
		c1.68-6.992,10.454-18.926,19.448-25.635c14.531-11.289,16.797-11.484,22.666,1.016c9.424,19.248,19.004,19.336,19.346-0.537
		c-0.786-9.053,5.166-24.619,12.046-34.795c17.183-25.43,27.271-8.975,25.85,43.145c-0.308,22.842,4.814,121.611,10.801,219.854
		c6.152,97.549,10.737,213.916,10.459,258.193c-0.977,44.102,3.022,98.271,8.115,120.176
		c11.426,47.822,12.544,129.385,4.507,236.816c-3.936,44.131-4.443,83.174-2.651,88.047c3.35,4.492,5.786,3.594,7.129-1.992
		s10.645-16.65,19.809-24.063l16.602-13.75l1.987,25.596c4.224,59.395-9.077,145.615-51.943,330.42
		c-36.802,162.617-45.576,211.484-49.595,283.681c-6.543,101.152-6.172,268.984-0.244,361.309
		c3.887,60.781,4.78,63.213,20.605,58.877c11.123-3.232,53.013,3.857,124.99,21.123l108.301,25.996l64.624-22.92
		c35.601-12.891,72.773-26.133,82.666-30.42c10.596-4.102,42.397-31.943,72.612-62.373c75.591-77.93,71.963-75.107,77.334-60.527
		c11.621,31.611-26.807,114.766-78.027,171.201c-26.914,29.014-29.492,33.564-32.422,73.506
		c-6.006,83.545-41.47,129.707-140.83,183.457c-170.098,92.939-164.727,89.063-172.607,121.895
		c-5.366,22.363-3.77,43.438,7.188,77.842c17.808,58.213,143.359,267.92,192.671,321.123
		c62.686,68.252,195.698,182.192,230.356,197.9c18.032,8.022,39.414,20.537,47.319,27.612
		c24.429,21.377,64.097,87.056,64.795,105.698c-0.088,9.59,20.654,46.343,45.557,81.138
		c81.587,112.686,205.41,360.391,278.032,556.65c18.984,53.32,32.314,99.385,29.214,103.076c-3.633,2.822-15.317,2.231-26.162-1.846
		c-16.099-6.821-19.932-6.26-19.478,4.194c0.811,30.493-31.528,38.989-57.71,15.708c-7.92-7.075-12.275-7.378-17.617-0.532
		C4912.931,6544.492,4877.609,6531.582,4858.185,6504.75z"/>
</g>
</svg>
